# xmcd
#
# Track frame offsets:
#	150
#	12482
#	24564
#	41068
#	59715
#	77007
#	88142
#	101244
#	113296
#	126448
#	142405
#	158362
#
# Disc length: 2242 seconds
#
# Revision: 0
# Processed by: cddbd v1.4PL0 Copyright (c) Steve Scherf et al.
# Submitted via: EasyCDDAExtractor 4.5.0.2
#
DISCID=a308c00c
DTITLE=Junior Brown - Guit With It
DYEAR=1993
DGENRE=Country
TTITLE0=Doin' What Comes Easy To A Fool
TTITLE1=Highway Patrol
TTITLE2=So Close Yest So Far Away
TTITLE3=Sugerfoot Rag
TTITLE4=My Wife Thinks You're Dead
TTITLE5=You Didn't Have To Go All The Way
TTITLE6=Party Lights
TTITLE7=Names And Addresses
TTITLE8=Still Life With Rose
TTITLE9=Holding Pattern
TTITLE10=Guit-Steel Blues
TTITLE11=The Gal From Oklahoma
EXTD=
EXTT0=
EXTT1=
EXTT2=
EXTT3=
EXTT4=
EXTT5=
EXTT6=
EXTT7=
EXTT8=
EXTT9=
EXTT10=
EXTT11=
PLAYORDER=
